<?xml version="1.0" encoding="UTF-8" standalone="no"?><!DOCTYPE svg PUBLIC "-//W3C//DTD SVG 1.1//EN" "http://www.w3.org/Graphics/SVG/1.1/DTD/svg11.dtd"><svg width="100%" height="100%" viewBox="0 0 168 168" version="1.1" xmlns="http://www.w3.org/2000/svg" xmlns:xlink="http://www.w3.org/1999/xlink" xml:space="preserve" xmlns:serif="http://www.serif.com/" style="fill-rule:evenodd;clip-rule:evenodd;stroke-linecap:round;stroke-linejoin:round;stroke-miterlimit:1.5;"><path d="M70.281,15.036c7.476,3.541 16.879,11.832 17.559,17.692c0.595,5.127 -0.144,5.596 -0,8.976" style="fill:none;stroke:#fff;stroke-width:30px;"/><path d="M70.281,15.036c7.476,3.541 16.879,11.832 17.559,17.692c0.595,5.127 -0.144,5.596 -0,8.976" style="fill:none;stroke:#1d3d30;stroke-width:10px;"/><path d="M152.516,94.386l0,31.072c0,9.448 -7.67,17.119 -17.119,17.119l-103.098,0c-9.448,0 -17.119,-7.671 -17.119,-17.119l-0,-31.072c-0,-9.448 7.671,-17.119 17.119,-17.119l103.098,0c9.449,0 17.119,7.671 17.119,17.119Z" style="fill:#91c679;"/><path d="M152.516,94.386l0,31.072c0,9.448 -7.67,17.119 -17.119,17.119l-103.098,0c-9.448,0 -17.119,-7.671 -17.119,-17.119l-0,-31.072c-0,-9.448 7.671,-17.119 17.119,-17.119l103.098,0c9.449,0 17.119,7.671 17.119,17.119Z" style="fill:none;stroke:#fff;stroke-width:30px;"/><path d="M152.516,94.386l0,31.072c0,9.448 -7.67,17.119 -17.119,17.119l-103.098,0c-9.448,0 -17.119,-7.671 -17.119,-17.119l-0,-31.072c-0,-9.448 7.671,-17.119 17.119,-17.119l103.098,0c9.449,0 17.119,7.671 17.119,17.119Z" style="fill:none;stroke:#1d3d30;stroke-width:10px;"/><path d="M87.524,35.223c15.251,-0 25.462,11.266 25.503,26.314c0.149,54.199 -47.786,97.193 -55.637,84.292c-5.554,-9.125 15.764,-14.932 5.918,-84.292c-2.115,-14.902 8.965,-26.314 24.216,-26.314Z" style="fill:none;stroke:#fff;stroke-width:40px;"/><path d="M87.524,35.223c15.251,-0 25.462,11.266 25.503,26.314c0.149,54.199 -47.786,97.193 -55.637,84.292c-5.554,-9.125 15.764,-14.932 5.918,-84.292c-2.115,-14.902 8.965,-26.314 24.216,-26.314Z" style="fill:none;stroke:#1d3d30;stroke-width:20px;"/><path d="M87.524,35.223c15.251,-0 25.462,11.266 25.503,26.314c0.149,54.199 -47.786,97.193 -55.637,84.292c-5.554,-9.125 15.764,-14.932 5.918,-84.292c-2.115,-14.902 8.965,-26.314 24.216,-26.314Z" style="fill:#91c679;"/><path d="M70.281,14.076c7.476,3.541 16.879,11.832 17.559,17.692c0.595,5.127 -0.144,5.596 -0,8.976" style="fill:none;"/><path d="M70.281,14.076c7.476,3.541 16.879,11.832 17.559,17.692c0.595,5.127 -0.144,5.596 -0,8.976" style="fill:none;stroke:#1d3d30;stroke-width:10px;"/><path d="M96.972,39.222c-4.494,-6.955 -14.803,-6.838 -18.732,1.522" style="fill:none;"/><path d="M96.972,39.222c-4.494,-6.955 -14.803,-6.838 -18.732,1.522" style="fill:none;stroke:#1d3d30;stroke-width:10px;"/><path d="M107.306,55.932c0.237,-0.006 1.599,-0.041 2.768,1.071c0.36,0.342 0.663,0.759 0.865,1.212c0.411,0.921 0.349,0.949 0.342,1.957c-0.233,38.087 -22.162,67.561 -35.082,79.025c-0.461,0.409 -0.959,0.392 -1.049,0.389c-0.186,-0.007 -0.375,-0.048 -0.545,-0.125c-0.083,-0.037 -0.558,-0.252 -0.774,-0.829c-0.03,-0.082 -0.208,-0.558 0.038,-1.099c0.161,-0.351 0.197,-0.328 0.47,-0.6c11.198,-11.137 31.075,-40.549 29.196,-76.812c-0.046,-0.885 -0.06,-0.9 0.262,-1.726c0.18,-0.462 0.461,-0.894 0.804,-1.254c1.11,-1.168 2.468,-1.203 2.705,-1.209Z" style="fill:#5a923e;"/><path d="M66.013,126.735c-0.101,-0.031 -0.671,-0.206 -1.012,-0.85c-0.105,-0.199 -0.176,-0.421 -0.201,-0.645c-0.048,-0.436 -0.018,-0.437 0.099,-0.859c3.95,-14.344 4.366,-34.412 1.673,-56.551c-0.758,-6.232 -2.345,-11.875 0.504,-16.566c1.854,-3.051 5.448,-4.91 5.539,-4.961c0.525,-0.293 0.972,-0.512 1.127,-0.589c0.658,-0.323 1.378,-0.351 1.501,-0.355c0.496,-0.019 1.004,0.068 1.47,0.239c0.466,0.172 0.909,0.435 1.274,0.771c0.003,0.003 0.911,1.24 0.911,1.242c0.117,0.497 0.332,0.981 0.351,1.492c0.019,0.495 -0.069,1.003 -0.24,1.469c-0.172,0.466 -0.435,0.909 -0.771,1.275c-0.762,0.831 -0.856,0.716 -1.876,1.197c-0.216,0.102 -1.965,0.895 -2.953,2.086c-1.535,1.848 -0.593,6.677 -0.206,12.643c0.709,10.921 1.818,37.486 -5.002,57.796c-0.034,0.103 -0.23,0.687 -0.873,1.029c-0.643,0.342 -1.214,0.168 -1.315,0.137Z" style="fill:#c9e3bc;"/></svg>