<!-- Uploaded to: SVG Repo, www.svgrepo.com, Generator: SVG Repo Mixer Tools -->
<svg height="70px" width="70px" version="1.1" id="Layer_1" xmlns="http://www.w3.org/2000/svg" xmlns:xlink="http://www.w3.org/1999/xlink" 
	 viewBox="0 0 511.999 511.999" xml:space="preserve">
<path id="stalk" style="fill:#4E901E;" d="M511.921,54.044c0.401-3.356-0.761-6.71-3.15-9.1l-29.381-29.381c-2.39-2.39-5.744-3.551-9.1-3.15
	c-3.356,0.401-6.341,2.32-8.101,5.206l-45.91,75.291c-2.648,4.343-1.98,9.933,1.616,13.529s9.187,4.264,13.529,1.616l75.291-45.91
	C509.602,60.387,511.521,57.4,511.921,54.044z"/>
<path id="body" style="fill:#FF3F62;" d="M402,317.079c-29.97,39.572-117.4,109.608-205.099,147.301
	C109.731,504.34,22.29,511.956,4.52,478.995c-19.006-33.666,25.387-98.598,68.654-167.189
	c45.162-67.885,89.2-139.43,113.232-170.008c47.864-58.261,132.645-81.91,199.869-44.56C453.26,134.251,466.637,237.638,402,317.079
	z"/>
<path id="cap" style="fill:#5EAC24;" d="M436.857,306.463c24.81-34.883,38.118-75.782,37.492-115.308
	c-0.627-39.534-14.804-75.138-39.923-100.257c-70.943-70.943-160.697-46.024-218.12-2.615c-5.965,4.51-8.622,12.172-6.727,19.407
	c1.895,7.235,7.967,12.609,15.378,13.616l66.411,9.008c0.062,0.008,17.395-0.373,16.869,16.872l-2.392,51.823
	c-0.232,5.026,1.597,9.928,5.064,13.575c3.485,3.636,8.272,5.719,13.303,5.739l55.675,0.229c2.073,0.04,15.127,0.926,16.703,16.986
	l6.172,62.973c0.427,4.354,3.983,15.272,15.829,16.508C431.911,316.407,436.122,307.646,436.857,306.463z"/>
</svg>